<svg xmlns="http://www.w3.org/2000/svg" width="720" height="200" viewBox="0 0 720 200" font-family="-apple-system,Segoe UI,sans-serif" role="img" aria-label="일별 클론·조회 추이">
<title>일별 클론·조회 추이 (2026-08-25 ~ 2026-10-01)</title>
<line x1="34" y1="174.0" x2="710" y2="174.0" stroke="#8b949e" stroke-opacity=".25"/><text x="28" y="178.0" font-size="10" fill="#8b949e" text-anchor="end">0</text><line x1="34" y1="95.0" x2="710" y2="95.0" stroke="#8b949e" stroke-opacity=".25"/><text x="28" y="99.0" font-size="10" fill="#8b949e" text-anchor="end">1</text><line x1="34" y1="16.0" x2="710" y2="16.0" stroke="#8b949e" stroke-opacity=".25"/><text x="28" y="20.0" font-size="10" fill="#8b949e" text-anchor="end">2</text><text x="34.0" y="192" font-size="10" fill="#8b949e" text-anchor="start">08-25</text><text x="381.1" y="192" font-size="10" fill="#8b949e" text-anchor="middle">09-13</text><text x="710.0" y="192" font-size="10" fill="#8b949e" text-anchor="end">10-01</text>
<polyline fill="none" stroke="#3b82f6" stroke-width="2" points="34.0,174.0 52.3,174.0 70.5,174.0 88.8,174.0 107.1,174.0 125.4,174.0 143.6,174.0 161.9,174.0 180.2,174.0 198.4,174.0 216.7,174.0 235.0,174.0 253.2,174.0 271.5,174.0 289.8,174.0 308.1,174.0 326.3,174.0 344.6,174.0 362.9,174.0 381.1,174.0 399.4,174.0 417.7,174.0 435.9,174.0 454.2,174.0 472.5,174.0 490.8,174.0 509.0,174.0 527.3,174.0 545.6,174.0 563.8,174.0 582.1,174.0 600.4,174.0 618.6,174.0 636.9,174.0 655.2,174.0 673.5,174.0 691.7,174.0 710.0,174.0"/>
<polyline fill="none" stroke="#f59e0b" stroke-width="2" points="34.0,174.0 52.3,174.0 70.5,174.0 88.8,174.0 107.1,174.0 125.4,174.0 143.6,174.0 161.9,174.0 180.2,174.0 198.4,174.0 216.7,174.0 235.0,174.0 253.2,174.0 271.5,174.0 289.8,174.0 308.1,174.0 326.3,174.0 344.6,174.0 362.9,174.0 381.1,174.0 399.4,174.0 417.7,174.0 435.9,174.0 454.2,174.0 472.5,174.0 490.8,174.0 509.0,174.0 527.3,174.0 545.6,174.0 563.8,174.0 582.1,174.0 600.4,174.0 618.6,174.0 636.9,174.0 655.2,174.0 673.5,174.0 691.7,174.0 710.0,174.0"/>
<circle cx="570" cy="12" r="4" fill="#3b82f6"/>
<text x="580" y="16" font-size="11" fill="#8b949e">clones</text>
<circle cx="642" cy="12" r="4" fill="#f59e0b"/>
<text x="652" y="16" font-size="11" fill="#8b949e">views</text>
</svg>
